ply
format ascii 1.0
comment : created from Kinect user tracker
element vertex 116
property float x
property float y
property float z
property int userId
end_header
1459.512 -282.4862 2711.0 1
1431.2634 -310.7348 2711.0 1
1459.512 -310.7348 2711.0 1
1431.2634 -338.98337 2711.0 1
1436.9006 -333.7317 2669.0 1
1431.2634 -367.23212 2711.0 1
1436.9006 -361.5428 2669.0 1
1442.8783 -398.69006 2733.0 1
1436.9006 -389.35373 2669.0 1
1442.8783 -427.16788 2733.0 1
1436.9006 -417.1647 2669.0 1
1477.7228 -466.64923 2799.0 1
1436.9006 -444.97565 2669.0 1
1489.8656 -499.889 2822.0 1
1459.512 -480.22647 2711.0 1
1489.8656 -529.2944 2822.0 1
1482.6617 -516.5403 2754.0 1
1509.6252 -577.5077 2917.0 1
1502.0083 -563.2531 2845.0 1
1495.0442 -549.79047 2777.0 1
1497.2046 -602.9012 2893.0 1
1502.0083 -592.898 2845.0 1
1506.8883 -583.3116 2799.0 1
1509.6252 -638.2979 2917.0 1
1514.6791 -627.79456 2869.0 1
1519.2708 -617.51 2822.0 1
1491.9078 -674.424 2942.0 1
1497.2046 -663.1912 2893.0 1
1502.0083 -652.18774 2845.0 1
1531.6532 -652.18774 2845.0 1
1473.6692 -711.0713 2967.0 1
1491.9078 -705.0798 2942.0 1
1509.6252 -699.08826 2917.0 1
1514.6791 -687.5846 2869.0 1
1531.6532 -681.83276 2845.0 1
1473.6692 -741.98737 2967.0 1
1479.2301 -729.4834 2917.0 1
1509.6252 -729.4834 2917.0 1
1527.3497 -723.48145 2893.0 1
1531.6532 -711.4776 2845.0 1
1455.3961 -779.6765 2993.0 1
1473.6692 -772.9035 2967.0 1
1491.9078 -766.391 2942.0 1
1522.5634 -766.391 2942.0 1
1527.3497 -753.62646 2893.0 1
1544.574 -747.3745 2869.0 1
1436.5812 -817.9074 3019.0 1
1455.3961 -810.8635 2993.0 1
1473.6692 -803.8196 2967.0 1
1491.9078 -797.0466 2942.0 1
1509.6252 -790.2736 2917.0 1
1527.3497 -783.77155 2893.0 1
1449.429 -856.96155 3046.0 1
1455.3961 -842.05054 2993.0 1
1473.6692 -834.7357 2967.0 1
1491.9078 -827.7022 2942.0 1
1522.5634 -827.7022 2942.0 1
1540.0205 -820.6687 2917.0 1
1405.123 -880.8235 3019.0 1
1424.2091 -873.23773 2993.0 1
1430.5966 -858.358 2942.0 1
1461.2521 -858.358 2942.0 1
1491.9078 -858.358 2942.0 1
1522.5634 -858.358 2942.0 1
1417.6896 -920.4403 3046.0 1
1424.2091 -904.42474 2993.0 1
1430.5966 -889.01355 2942.0 1
1461.2521 -889.01355 2942.0 1
1491.9078 -889.01355 2942.0 1
1449.6512 -995.9436 3186.0 1
1405.123 -943.7394 3019.0 1
1424.2091 -935.61176 2993.0 1
1442.7532 -927.4842 2967.0 1
1473.6692 -927.4842 2967.0 1
1417.6896 -983.9189 3046.0 1
1424.2091 -966.7988 2993.0 1
1455.3961 -966.7988 2993.0 1
1473.6692 -958.40027 2967.0 1
1410.9757 -1033.9973 3101.0 1
1417.6896 -1015.65814 3046.0 1
1436.5812 -1006.6553 3019.0 1
1468.0391 -1006.6553 3019.0 1
1512.9075 -1015.65814 3046.0 1
1410.9757 -1066.3099 3101.0 1
1430.2561 -1056.6818 3073.0 1
1436.5812 -1038.1134 3019.0 1
1468.0391 -1038.1134 3019.0 1
1554.1324 -1075.938 3129.0 1
1358.5074 -1108.5421 3129.0 1
1366.2147 -1088.7024 3073.0 1
1385.9503 -1079.1368 3046.0 1
1430.2561 -1088.7024 3073.0 1
1449.429 -1079.1368 3046.0 1
1507.913 -1098.6223 3101.0 1
1568.0397 -1118.4619 3157.0 1
1586.7368 -1108.5421 3129.0 1
1519.2708 -999.7782 2822.0 1
1358.5074 -1141.1462 3129.0 1
1391.1116 -1141.1462 3129.0 1
1385.9503 -1110.8762 3046.0 1
1430.2561 -1120.723 3073.0 1
1475.6006 -1130.9347 3101.0 1
1507.913 -1130.9347 3101.0 1
1568.0397 -1151.3579 3157.0 1
1600.9358 -1151.3579 3157.0 1
1527.3497 -1055.077 2893.0 1
1519.2708 -1029.1833 2822.0 1
1410.9757 -1163.2471 3101.0 1
1443.2881 -1163.2471 3101.0 1
1502.0083 -1067.2163 2845.0 1
1519.2708 -1058.5886 2822.0 1
1531.6532 -1096.8612 2845.0 1
1502.0083 -1126.5062 2845.0 1
1544.574 -1136.0093 2869.0 1
1540.0205 -1185.4105 2917.0 1
1570.4155 -1185.4105 2917.0 1
