ply
format ascii 1.0
comment : created from Kinect user tracker
element vertex 141
property float x
property float y
property float z
property int userId
end_header
1506.8883 -145.8279 2799.0 1
1519.2708 -176.43141 2822.0 1
1519.2708 -205.83662 2822.0 1
1514.6791 -239.1599 2869.0 1
1482.6617 -229.57349 2754.0 1
1509.6252 -273.55627 2917.0 1
1489.8656 -264.6472 2822.0 1
1459.512 -254.23761 2711.0 1
1467.0596 -301.4506 2893.0 1
1497.2046 -301.4506 2893.0 1
1453.9652 -286.9668 2754.0 1
1436.9006 -278.1098 2669.0 1
1425.2684 -315.66345 2754.0 1
1431.2634 -310.7348 2711.0 1
1436.9006 -305.92075 2669.0 1
1414.4003 -341.73425 2733.0 1
1409.0897 -333.7317 2669.0 1
1426.1333 -331.2309 2649.0 1
1409.0897 -361.5428 2669.0 1
1415.366 -356.1244 2629.0 1
1425.2684 -401.75354 2754.0 1
1420.1766 -392.4172 2690.0 1
1426.1333 -386.43613 2649.0 1
1425.2684 -430.4502 2754.0 1
1431.2634 -423.72928 2711.0 1
1415.366 -410.9127 2629.0 1
1460.4602 -470.4838 2822.0 1
1442.8783 -455.64572 2733.0 1
1415.366 -438.30685 2629.0 1
1453.9652 -487.8435 2754.0 1
1436.9006 -472.7866 2669.0 1
1466.1079 -520.8542 2777.0 1
1471.3561 -512.6015 2733.0 1
1509.6252 -577.5077 2917.0 1
1489.8656 -558.6996 2822.0 1
1482.6617 -545.23694 2754.0 1
1497.2046 -602.9012 2893.0 1
1502.0083 -592.898 2845.0 1
1519.2708 -588.1048 2822.0 1
1544.647 -666.5257 3046.0 1
1522.5634 -643.7684 2942.0 1
1502.0083 -622.54285 2845.0 1
1519.2708 -617.51 2822.0 1
1517.7703 -686.11523 2993.0 1
1509.6252 -668.693 2917.0 1
1514.6791 -657.6895 2869.0 1
1519.2708 -646.9152 2822.0 1
1486.5831 -717.3024 2993.0 1
1491.9078 -705.0798 2942.0 1
1509.6252 -699.08826 2917.0 1
1527.3497 -693.3364 2893.0 1
1531.6532 -681.83276 2845.0 1
1455.3961 -748.48944 2993.0 1
1473.6692 -741.98737 2967.0 1
1491.9078 -735.73535 2942.0 1
1509.6252 -729.4834 2917.0 1
1527.3497 -723.48145 2893.0 1
1544.574 -717.47955 2869.0 1
1468.0391 -786.44946 3019.0 1
1473.6692 -772.9035 2967.0 1
1491.9078 -766.391 2942.0 1
1509.6252 -759.8785 2917.0 1
1527.3497 -753.62646 2893.0 1
1557.4948 -753.62646 2893.0 1
1449.429 -825.2223 3046.0 1
1455.3961 -810.8635 2993.0 1
1461.2521 -797.0466 2942.0 1
1491.9078 -797.0466 2942.0 1
1509.6252 -790.2736 2917.0 1
1527.3497 -783.77155 2893.0 1
1611.3314 -810.8635 2993.0 1
1449.429 -856.96155 3046.0 1
1455.3961 -842.05054 2993.0 1
1473.6692 -834.7357 2967.0 1
1491.9078 -827.7022 2942.0 1
1522.5634 -827.7022 2942.0 1
1540.0205 -820.6687 2917.0 1
1430.2561 -896.57855 3073.0 1
1449.429 -888.701 3046.0 1
1455.3961 -873.23773 2993.0 1
1461.2521 -858.358 2942.0 1
1491.9078 -858.358 2942.0 1
1522.5634 -858.358 2942.0 1
1417.6896 -920.4403 3046.0 1
1436.5812 -912.28143 3019.0 1
1455.3961 -904.42474 2993.0 1
1473.6692 -896.56805 2967.0 1
1491.9078 -889.01355 2942.0 1
1417.6896 -952.17957 3046.0 1
1424.2091 -935.61176 2993.0 1
1430.5966 -919.6692 2942.0 1
1473.6692 -927.4842 2967.0 1
1398.2355 -992.6404 3073.0 1
1417.6896 -983.9189 3046.0 1
1436.5812 -975.1973 3019.0 1
1455.3961 -966.7988 2993.0 1
1486.5831 -966.7988 2993.0 1
1410.9757 -1033.9973 3101.0 1
1417.6896 -1015.65814 3046.0 1
1436.5812 -1006.6553 3019.0 1
1481.1682 -1015.65814 3046.0 1
1403.5599 -1085.566 3157.0 1
1398.2355 -1056.6818 3073.0 1
1417.6896 -1047.3976 3046.0 1
1449.429 -1047.3976 3046.0 1
1481.1682 -1047.3976 3046.0 1
1489.8656 -970.373 2822.0 1
1506.8883 -962.4642 2799.0 1
1358.5074 -1108.5421 3129.0 1
1378.6631 -1098.6223 3101.0 1
1398.2355 -1088.7024 3073.0 1
1417.6896 -1079.1368 3046.0 1
1462.2769 -1088.7024 3073.0 1
1507.913 -1098.6223 3101.0 1
1582.4436 -1128.7361 3186.0 1
1600.9358 -1118.4619 3157.0 1
1489.8656 -999.7782 2822.0 1
1506.8883 -991.6297 2799.0 1
1370.6642 -1151.3579 3157.0 1
1391.1116 -1141.1462 3129.0 1
1398.2355 -1120.723 3073.0 1
1430.2561 -1120.723 3073.0 1
1475.6006 -1130.9347 3101.0 1
1507.913 -1130.9347 3101.0 1
1554.1324 -1141.1462 3129.0 1
1615.6418 -1161.9342 3186.0 1
1514.6791 -1046.3243 2869.0 1
1531.6532 -1037.5715 2845.0 1
1410.9757 -1163.2471 3101.0 1
1443.2881 -1163.2471 3101.0 1
1540.2252 -1163.2471 3101.0 1
1514.6791 -1076.2192 2869.0 1
1531.6532 -1067.2163 2845.0 1
1514.6791 -1106.1141 2869.0 1
1544.574 -1106.1141 2869.0 1
1522.5634 -1164.9143 2942.0 1
1527.3497 -1145.5123 2893.0 1
1544.574 -1136.0093 2869.0 1
1522.5634 -1195.57 2942.0 1
1540.0205 -1185.4105 2917.0 1
1557.4948 -1175.6573 2893.0 1
