ply
format ascii 1.0
comment : created from Kinect user tracker
element vertex 124
property float x
property float y
property float z
property int userId
end_header
1482.6617 -258.27014 2754.0 1
1448.2063 -280.298 2690.0 1
1420.1766 -308.32776 2690.0 1
1436.9006 -305.92075 2669.0 1
1409.0897 -333.7317 2669.0 1
1436.9006 -333.7317 2669.0 1
1431.2634 -367.23212 2711.0 1
1426.1333 -358.8336 2649.0 1
1442.8783 -398.69006 2733.0 1
1426.1333 -386.43613 2649.0 1
1442.8783 -427.16788 2733.0 1
1415.366 -410.9127 2629.0 1
1466.1079 -462.9814 2777.0 1
1426.1333 -441.64124 2649.0 1
1489.8656 -499.889 2822.0 1
1459.512 -480.22647 2711.0 1
1472.3633 -533.6083 2845.0 1
1489.8656 -529.2944 2822.0 1
1482.6617 -516.5403 2754.0 1
1497.2046 -572.75616 2893.0 1
1489.8656 -558.6996 2822.0 1
1495.0442 -549.79047 2777.0 1
1497.2046 -602.9012 2893.0 1
1502.0083 -592.898 2845.0 1
1506.8883 -583.3116 2799.0 1
1509.6252 -638.2979 2917.0 1
1514.6791 -627.79456 2869.0 1
1519.2708 -617.51 2822.0 1
1491.9078 -674.424 2942.0 1
1509.6252 -668.693 2917.0 1
1502.0083 -652.18774 2845.0 1
1531.6532 -652.18774 2845.0 1
1473.6692 -711.0713 2967.0 1
1491.9078 -705.0798 2942.0 1
1509.6252 -699.08826 2917.0 1
1514.6791 -687.5846 2869.0 1
1531.6532 -681.83276 2845.0 1
1430.5966 -735.73535 2942.0 1
1473.6692 -741.98737 2967.0 1
1491.9078 -735.73535 2942.0 1
1509.6252 -729.4834 2917.0 1
1527.3497 -723.48145 2893.0 1
1544.574 -717.47955 2869.0 1
1455.3961 -779.6765 2993.0 1
1486.5831 -779.6765 2993.0 1
1479.2301 -759.8785 2917.0 1
1509.6252 -759.8785 2917.0 1
1527.3497 -753.62646 2893.0 1
1570.4155 -759.8785 2917.0 1
1462.2769 -832.5371 3073.0 1
1455.3961 -810.8635 2993.0 1
1473.6692 -803.8196 2967.0 1
1491.9078 -797.0466 2942.0 1
1522.5634 -797.0466 2942.0 1
1527.3497 -783.77155 2893.0 1
1557.4948 -783.77155 2893.0 1
1436.5812 -849.36536 3019.0 1
1455.3961 -842.05054 2993.0 1
1473.6692 -834.7357 2967.0 1
1479.2301 -820.6687 2917.0 1
1522.5634 -827.7022 2942.0 1
1540.0205 -820.6687 2917.0 1
1430.2561 -896.57855 3073.0 1
1436.5812 -880.8235 3019.0 1
1442.7532 -865.652 2967.0 1
1461.2521 -858.358 2942.0 1
1491.9078 -858.358 2942.0 1
1522.5634 -858.358 2942.0 1
1417.6896 -920.4403 3046.0 1
1424.2091 -904.42474 2993.0 1
1442.7532 -896.56805 2967.0 1
1461.2521 -889.01355 2942.0 1
1491.9078 -889.01355 2942.0 1
1405.123 -943.7394 3019.0 1
1424.2091 -935.61176 2993.0 1
1442.7532 -927.4842 2967.0 1
1461.2521 -919.6692 2942.0 1
1398.2355 -992.6404 3073.0 1
1417.6896 -983.9189 3046.0 1
1436.5812 -975.1973 3019.0 1
1442.7532 -958.40027 2967.0 1
1486.5831 -966.7988 2993.0 1
1398.2355 -1024.661 3073.0 1
1417.6896 -1015.65814 3046.0 1
1424.2091 -997.98584 2993.0 1
1468.0391 -1006.6553 3019.0 1
1526.318 -1024.661 3073.0 1
1519.2708 -940.9676 2822.0 1
1429.7906 -1105.8538 3216.0 1
1385.9503 -1047.3976 3046.0 1
1417.6896 -1047.3976 3046.0 1
1436.5812 -1038.1134 3019.0 1
1481.1682 -1047.3976 3046.0 1
1568.0397 -1085.566 3157.0 1
1495.0442 -954.89923 2777.0 1
1370.6642 -1118.4619 3157.0 1
1378.6631 -1098.6223 3101.0 1
1385.9503 -1079.1368 3046.0 1
1417.6896 -1079.1368 3046.0 1
1449.429 -1079.1368 3046.0 1
1494.2975 -1088.7024 3073.0 1
1582.4436 -1128.7361 3186.0 1
1489.8656 -999.7782 2822.0 1
1519.2708 -999.7782 2822.0 1
1358.5074 -1141.1462 3129.0 1
1378.6631 -1130.9347 3101.0 1
1410.9757 -1130.9347 3101.0 1
1417.6896 -1110.8762 3046.0 1
1475.6006 -1130.9347 3101.0 1
1507.913 -1130.9347 3101.0 1
1568.0397 -1151.3579 3157.0 1
1502.0083 -1037.5715 2845.0 1
1519.2708 -1029.1833 2822.0 1
1398.2355 -1152.7437 3073.0 1
1443.2881 -1163.2471 3101.0 1
1502.0083 -1067.2163 2845.0 1
1519.2708 -1058.5886 2822.0 1
1502.0083 -1096.8612 2845.0 1
1544.574 -1106.1141 2869.0 1
1514.6791 -1136.0093 2869.0 1
1544.574 -1136.0093 2869.0 1
1522.5634 -1195.57 2942.0 1
1527.3497 -1175.6573 2893.0 1
1557.4948 -1175.6573 2893.0 1
