ply
format ascii 1.0
comment : created from Kinect user tracker
element vertex 252
property float x
property float y
property float z
property int userId
end_header
1383.6023 -26.779373 2570.0 1
1339.8765 -53.95471 2589.0 1
1356.823 -53.558746 2570.0 1
1373.3733 -53.16279 2551.0 1
1333.1835 -82.182594 2629.0 1
1339.8765 -80.93219 2589.0 1
1356.823 -80.33825 2570.0 1
1373.3733 -79.74431 2551.0 1
1323.0413 -108.74314 2609.0 1
1330.0435 -107.11762 2570.0 1
1356.823 -107.11762 2570.0 1
1383.6023 -107.11762 2570.0 1
1295.8555 -135.9289 2609.0 1
1312.8992 -134.8869 2589.0 1
1330.0435 -133.897 2570.0 1
1356.823 -133.897 2570.0 1
1383.6023 -133.897 2570.0 1
1285.9216 -161.86426 2589.0 1
1303.2642 -160.67638 2570.0 1
1330.0435 -160.67638 2570.0 1
1356.823 -160.67638 2570.0 1
1404.5986 -163.11465 2609.0 1
1295.8555 -190.3004 2609.0 1
1303.2642 -187.45575 2570.0 1
1339.8765 -188.8416 2589.0 1
1377.4128 -190.3004 2609.0 1
1426.1333 -193.218 2649.0 1
1278.395 -219.15349 2629.0 1
1285.9216 -215.81909 2589.0 1
1312.8992 -215.81909 2589.0 1
1339.8765 -215.81909 2589.0 1
1398.5308 -220.8207 2649.0 1
1415.366 -219.15349 2629.0 1
1268.6697 -244.67204 2609.0 1
1285.9216 -242.79645 2589.0 1
1312.8992 -242.79645 2589.0 1
1370.9281 -248.42325 2649.0 1
1398.5308 -248.42325 2649.0 1
1415.366 -246.54764 2629.0 1
1268.6697 -271.8578 2609.0 1
1285.9216 -269.7738 2589.0 1
1312.8992 -269.7738 2589.0 1
1381.2786 -278.1098 2669.0 1
1398.5308 -276.0258 2649.0 1
1404.5986 -271.8578 2609.0 1
1268.6697 -299.04355 2609.0 1
1276.4846 -294.57336 2570.0 1
1333.1835 -301.33594 2629.0 1
1381.2786 -305.92075 2669.0 1
1398.5308 -303.62836 2649.0 1
1426.1333 -303.62836 2649.0 1
1268.6697 -326.2293 2609.0 1
1276.4846 -321.35275 2570.0 1
1323.0413 -326.2293 2609.0 1
1381.2786 -333.7317 2669.0 1
1398.5308 -331.2309 2649.0 1
1415.366 -328.7301 2629.0 1
1251.001 -356.1244 2629.0 1
1268.6697 -353.4152 2609.0 1
1276.4846 -348.13223 2570.0 1
1333.1835 -356.1244 2629.0 1
1370.9281 -358.8336 2649.0 1
1398.5308 -358.8336 2649.0 1
1426.1333 -358.8336 2649.0 1
1242.2238 -389.35373 2669.0 1
1251.001 -383.51852 2629.0 1
1268.6697 -380.60095 2609.0 1
1276.4846 -374.91162 2570.0 1
1333.1835 -383.51852 2629.0 1
1370.9281 -386.43613 2649.0 1
1387.9718 -383.51852 2629.0 1
1426.1333 -386.43613 2649.0 1
1214.2981 -407.78668 2609.0 1
1241.484 -407.78668 2609.0 1
1278.395 -410.9127 2629.0 1
1276.4846 -401.69098 2570.0 1
1333.1835 -410.9127 2629.0 1
1381.2786 -417.1647 2669.0 1
1398.5308 -414.0387 2649.0 1
1404.5986 -407.78668 2609.0 1
1204.9896 -431.63806 2589.0 1
1251.001 -438.30685 2629.0 1
1268.6697 -434.97244 2609.0 1
1295.8555 -434.97244 2609.0 1
1353.4677 -444.97565 2669.0 1
1381.2786 -444.97565 2669.0 1
1398.5308 -441.64124 2649.0 1
1415.366 -438.30685 2629.0 1
1302.7291 -495.8148 2799.0 1
1290.0204 -480.22647 2711.0 1
1297.8457 -472.7866 2669.0 1
1325.6566 -472.7866 2669.0 1
1353.4677 -472.7866 2669.0 1
1381.2786 -472.7866 2669.0 1
1398.5308 -469.2438 2649.0 1
1415.366 -465.701 2629.0 1
1302.7291 -524.98047 2799.0 1
1300.489 -512.6015 2733.0 1
1328.9668 -512.6015 2733.0 1
1336.087 -504.53644 2690.0 1
1353.4677 -500.5977 2669.0 1
1370.9281 -496.8465 2649.0 1
1387.9718 -493.09528 2629.0 1
1426.1333 -496.8465 2649.0 1
1302.7291 -554.14606 2799.0 1
1300.489 -541.07935 2733.0 1
1328.9668 -541.07935 2733.0 1
1336.087 -532.5662 2690.0 1
1353.4677 -528.4086 2669.0 1
1370.9281 -524.44904 2649.0 1
1398.5308 -524.44904 2649.0 1
1436.9006 -528.4086 2669.0 1
1273.5637 -583.3116 2799.0 1
1292.4897 -578.7268 2777.0 1
1300.489 -569.5572 2733.0 1
1328.9668 -569.5572 2733.0 1
1336.087 -560.596 2690.0 1
1364.117 -560.596 2690.0 1
1370.9281 -552.0516 2649.0 1
1398.5308 -552.0516 2649.0 1
1448.2063 -560.596 2690.0 1
1284.0288 -617.51 2822.0 1
1292.4897 -607.6631 2777.0 1
1300.489 -598.03503 2733.0 1
1328.9668 -598.03503 2733.0 1
1357.4446 -598.03503 2733.0 1
1364.117 -588.62573 2690.0 1
1392.1467 -588.62573 2690.0 1
1284.0288 -646.9152 2822.0 1
1292.4897 -636.5994 2777.0 1
1290.0204 -621.4696 2711.0 1
1328.9668 -626.5129 2733.0 1
1346.5175 -621.4696 2711.0 1
1385.9225 -626.5129 2733.0 1
1425.2684 -631.3269 2754.0 1
1286.1891 -693.3364 2893.0 1
1284.0288 -676.32056 2822.0 1
1292.4897 -665.5359 2777.0 1
1300.489 -654.99084 2733.0 1
1339.1783 -660.0237 2754.0 1
1357.4446 -654.99084 2733.0 1
1385.9225 -654.99084 2733.0 1
1256.0442 -723.48145 2893.0 1
1264.849 -711.4776 2845.0 1
1284.0288 -705.72577 2822.0 1
1302.7291 -699.97394 2799.0 1
1310.4818 -688.72034 2754.0 1
1339.1783 -688.72034 2754.0 1
1367.875 -688.72034 2754.0 1
1266.4641 -759.8785 2917.0 1
1264.849 -741.1225 2845.0 1
1273.5637 -729.13947 2799.0 1
1292.4897 -723.4085 2777.0 1
1310.4818 -717.417 2754.0 1
1350.3625 -723.4085 2777.0 1
1367.875 -717.417 2754.0 1
1256.0442 -783.77155 2893.0 1
1275.519 -777.2694 2869.0 1
1273.5637 -758.30505 2799.0 1
1302.7291 -758.30505 2799.0 1
1321.4263 -752.3448 2777.0 1
1361.0604 -758.30505 2799.0 1
1236.0691 -820.6687 2917.0 1
1266.4641 -820.6687 2917.0 1
1264.849 -800.41223 2845.0 1
1284.0288 -793.9414 2822.0 1
1302.7291 -787.4706 2799.0 1
1331.8949 -787.4706 2799.0 1
1236.0691 -851.06396 2917.0 1
1256.0442 -844.0617 2893.0 1
1286.1891 -844.0617 2893.0 1
1284.0288 -823.34674 2822.0 1
1324.1388 -830.05725 2845.0 1
1519.2708 -823.34674 2822.0 1
1237.0867 -904.42474 2993.0 1
1246.6627 -889.01355 2942.0 1
1266.4641 -881.45905 2917.0 1
1286.1891 -874.2067 2893.0 1
1305.4142 -866.9544 2869.0 1
1514.6791 -866.9544 2869.0 1
1531.6532 -859.7021 2845.0 1
1237.0867 -935.61176 2993.0 1
1257.2565 -927.4842 2967.0 1
1256.0442 -904.3518 2893.0 1
1296.8593 -911.8542 2917.0 1
1327.2545 -911.8542 2917.0 1
1514.6791 -896.84937 2869.0 1
1531.6532 -889.347 2845.0 1
1216.3752 -975.1973 3019.0 1
1237.0867 -966.7988 2993.0 1
1246.6627 -950.32477 2942.0 1
1266.4641 -942.24927 2917.0 1
1296.8593 -942.24927 2917.0 1
1327.2545 -942.24927 2917.0 1
1509.6252 -942.24927 2917.0 1
1502.0083 -918.9919 2845.0 1
1519.2708 -911.5624 2822.0 1
1205.8997 -997.98584 2993.0 1
1226.3402 -989.3164 2967.0 1
1246.6627 -980.9804 2942.0 1
1288.1725 -989.3164 2967.0 1
1307.9739 -980.9804 2942.0 1
1484.7839 -956.6393 2869.0 1
1502.0083 -948.6367 2845.0 1
1531.6532 -948.6367 2845.0 1
1217.1011 -1066.3099 3101.0 1
1216.3752 -1038.1134 3019.0 1
1226.3402 -1020.23267 2967.0 1
1246.6627 -1011.63617 2942.0 1
1299.4608 -1029.173 2993.0 1
1491.9078 -1011.63617 2942.0 1
1509.6252 -1003.0397 2917.0 1
1514.6791 -986.53436 2869.0 1
1531.6532 -978.28174 2845.0 1
1195.4241 -1051.1488 2967.0 1
1216.007 -1042.2917 2942.0 1
1246.6627 -1042.2917 2942.0 1
1491.9078 -1042.2917 2942.0 1
1497.2046 -1024.932 2893.0 1
1527.3497 -1024.932 2893.0 1
1557.4948 -1024.932 2893.0 1
1195.5143 -1110.8762 3046.0 1
1205.8997 -1091.5471 2993.0 1
1216.007 -1072.9474 2942.0 1
1268.2738 -1091.5471 2993.0 1
1491.9078 -1072.9474 2942.0 1
1509.6252 -1063.8298 2917.0 1
1540.0205 -1063.8298 2917.0 1
1583.8748 -1072.9474 2942.0 1
1184.9171 -1132.4872 3019.0 1
1195.4241 -1112.981 2967.0 1
1226.3402 -1112.981 2967.0 1
1544.647 -1142.6155 3046.0 1
1522.5634 -1103.603 2942.0 1
1540.0205 -1094.225 2917.0 1
1583.8748 -1103.603 2942.0 1
1153.4592 -1163.9452 3019.0 1
1174.7125 -1153.9211 2993.0 1
1195.4241 -1143.8971 2967.0 1
1216.007 -1134.2585 2942.0 1
1479.2301 -1124.6201 2917.0 1
1509.6252 -1124.6201 2917.0 1
1527.3497 -1115.3672 2893.0 1
1570.4155 -1124.6201 2917.0 1
1164.5078 -1174.8134 2967.0 1
1491.9078 -1164.9143 2942.0 1
1535.5016 -1174.8134 2967.0 1
1540.0205 -1155.0154 2917.0 1
1570.4155 -1155.0154 2917.0 1
1522.5634 -1195.57 2942.0 1
1540.0205 -1185.4105 2917.0 1
1583.8748 -1195.57 2942.0 1
