ply
format ascii 1.0
comment : created from Kinect user tracker
element vertex 153
property float x
property float y
property float z
property int userId
end_header
1506.8883 -116.662346 2799.0 1
1495.0442 -144.6817 2777.0 1
1502.0083 -177.86937 2845.0 1
1506.8883 -174.99345 2799.0 1
1460.4602 -205.83662 2822.0 1
1489.8656 -205.83662 2822.0 1
1482.6617 -200.87671 2754.0 1
1484.7839 -239.1599 2869.0 1
1466.1079 -231.49077 2777.0 1
1448.2063 -224.23845 2690.0 1
1479.2301 -273.55627 2917.0 1
1472.3633 -266.80414 2845.0 1
1466.1079 -260.4271 2777.0 1
1448.2063 -252.26822 2690.0 1
1454.889 -298.9498 2869.0 1
1472.3633 -296.449 2845.0 1
1442.8783 -284.7786 2733.0 1
1436.9006 -278.1098 2669.0 1
1442.7185 -326.09387 2845.0 1
1437.1715 -318.2997 2777.0 1
1420.1766 -308.32776 2690.0 1
1426.1333 -303.62836 2649.0 1
1425.2684 -344.3601 2754.0 1
1409.0897 -333.7317 2669.0 1
1415.366 -328.7301 2629.0 1
1403.0148 -367.23212 2711.0 1
1398.5308 -358.8336 2649.0 1
1404.5986 -353.4152 2609.0 1
1392.1467 -392.4172 2690.0 1
1409.0897 -389.35373 2669.0 1
1415.366 -383.51852 2629.0 1
1437.1715 -434.0451 2777.0 1
1409.0897 -417.1647 2669.0 1
1415.366 -410.9127 2629.0 1
1460.4602 -470.4838 2822.0 1
1420.1766 -448.47678 2690.0 1
1404.5986 -434.97244 2609.0 1
1472.3633 -503.96323 2845.0 1
1442.8783 -484.12357 2733.0 1
1404.5986 -462.1582 2609.0 1
1484.7839 -538.1097 2869.0 1
1466.1079 -520.8542 2777.0 1
1426.1333 -496.8465 2649.0 1
1497.2046 -572.75616 2893.0 1
1489.8656 -558.6996 2822.0 1
1471.3561 -541.07935 2733.0 1
1472.3633 -592.898 2845.0 1
1502.0083 -592.898 2845.0 1
1506.8883 -583.3116 2799.0 1
1522.5634 -643.7684 2942.0 1
1514.6791 -627.79456 2869.0 1
1519.2708 -617.51 2822.0 1
1491.9078 -674.424 2942.0 1
1509.6252 -668.693 2917.0 1
1514.6791 -657.6895 2869.0 1
1531.6532 -652.18774 2845.0 1
1486.5831 -717.3024 2993.0 1
1491.9078 -705.0798 2942.0 1
1509.6252 -699.08826 2917.0 1
1527.3497 -693.3364 2893.0 1
1531.6532 -681.83276 2845.0 1
1442.7532 -741.98737 2967.0 1
1473.6692 -741.98737 2967.0 1
1491.9078 -735.73535 2942.0 1
1509.6252 -729.4834 2917.0 1
1540.0205 -729.4834 2917.0 1
1544.574 -717.47955 2869.0 1
1468.0391 -786.44946 3019.0 1
1473.6692 -772.9035 2967.0 1
1479.2301 -759.8785 2917.0 1
1509.6252 -759.8785 2917.0 1
1540.0205 -759.8785 2917.0 1
1570.4155 -759.8785 2917.0 1
1436.5812 -817.9074 3019.0 1
1455.3961 -810.8635 2993.0 1
1473.6692 -803.8196 2967.0 1
1491.9078 -797.0466 2942.0 1
1522.5634 -797.0466 2942.0 1
1540.0205 -790.2736 2917.0 1
1570.4155 -790.2736 2917.0 1
1449.429 -856.96155 3046.0 1
1455.3961 -842.05054 2993.0 1
1473.6692 -834.7357 2967.0 1
1491.9078 -827.7022 2942.0 1
1522.5634 -827.7022 2942.0 1
1527.3497 -813.91656 2893.0 1
1417.6896 -888.701 3046.0 1
1436.5812 -880.8235 3019.0 1
1442.7532 -865.652 2967.0 1
1461.2521 -858.358 2942.0 1
1491.9078 -858.358 2942.0 1
1522.5634 -858.358 2942.0 1
1405.123 -912.28143 3019.0 1
1424.2091 -904.42474 2993.0 1
1442.7532 -896.56805 2967.0 1
1461.2521 -889.01355 2942.0 1
1504.5854 -896.56805 2967.0 1
1405.123 -943.7394 3019.0 1
1424.2091 -935.61176 2993.0 1
1442.7532 -927.4842 2967.0 1
1461.2521 -919.6692 2942.0 1
1398.2355 -992.6404 3073.0 1
1405.123 -975.1973 3019.0 1
1449.429 -983.9189 3046.0 1
1455.3961 -966.7988 2993.0 1
1486.5831 -966.7988 2993.0 1
1443.1282 -1082.3462 3246.0 1
1410.9757 -1033.9973 3101.0 1
1405.123 -1006.6553 3019.0 1
1436.5812 -1006.6553 3019.0 1
1468.0391 -1006.6553 3019.0 1
1512.9075 -1015.65814 3046.0 1
1398.2355 -1056.6818 3073.0 1
1417.6896 -1047.3976 3046.0 1
1436.5812 -1038.1134 3019.0 1
1481.1682 -1047.3976 3046.0 1
1540.2252 -1066.3099 3101.0 1
1506.8883 -962.4642 2799.0 1
1370.6642 -1118.4619 3157.0 1
1366.2147 -1088.7024 3073.0 1
1385.9503 -1079.1368 3046.0 1
1417.6896 -1079.1368 3046.0 1
1449.429 -1079.1368 3046.0 1
1481.1682 -1079.1368 3046.0 1
1554.1324 -1108.5421 3129.0 1
1586.7368 -1108.5421 3129.0 1
1502.0083 -1007.92664 2845.0 1
1506.8883 -991.6297 2799.0 1
1325.9033 -1141.1462 3129.0 1
1322.4717 -1110.8762 3046.0 1
1354.2109 -1110.8762 3046.0 1
1398.2355 -1120.723 3073.0 1
1417.6896 -1110.8762 3046.0 1
1462.2769 -1120.723 3073.0 1
1507.913 -1130.9347 3101.0 1
1554.1324 -1141.1462 3129.0 1
1502.0083 -1037.5715 2845.0 1
1519.2708 -1029.1833 2822.0 1
1385.9503 -1142.6155 3046.0 1
1405.123 -1132.4872 3019.0 1
1507.913 -1163.2471 3101.0 1
1526.318 -1152.7437 3073.0 1
1502.0083 -1067.2163 2845.0 1
1531.6532 -1067.2163 2845.0 1
1366.2147 -1184.7643 3073.0 1
1385.9503 -1174.3547 3046.0 1
1502.0083 -1096.8612 2845.0 1
1531.6532 -1096.8612 2845.0 1
1514.6791 -1136.0093 2869.0 1
1544.574 -1136.0093 2869.0 1
1548.9573 -1216.2953 2993.0 1
1540.0205 -1185.4105 2917.0 1
1570.4155 -1185.4105 2917.0 1
